<?xml version="1.0" encoding="utf-8"?>
<!-- Generator: Adobe Illustrator 25.1.0, SVG Export Plug-In . SVG Version: 6.00 Build 0)  -->
<svg version="1.1" id="Camada_1" xmlns="http://www.w3.org/2000/svg" xmlns:xlink="http://www.w3.org/1999/xlink" x="0px" y="0px"
	 viewBox="0 0 612.9 290.8" style="enable-background:new 0 0 612.9 290.8;" xml:space="preserve">
<style type="text/css">
	.st0{fill:#FFD400;}
	.st1{fill:#FFFFFF;}
</style>
<g>
	<g>
		<path class="st0" d="M194.5,223.4c-3.9-10.4-8.6-23.3-12.7-36.6c-7.6-24.9-13.9-49-13.7-49.1c4.9-3.2,48.2-32.7,79.6-50.6
			c0.5-0.3,9.7-5.4,10.6-11.9c0.2-1.8,0-3.5-0.6-5.2c-1.6-4.7-5.5-8.9-16.7-9.6c-8.7-0.7-24-1.6-40.9-0.7
			c-16.5,0.6-34.1,2.3-47.3,4.6c0,0-5.3-32.3-7.1-45.6c-0.1-0.8-1-5.9-2.3-8c-1.4-2.2-3.6-4.2-7.3-4.9c-4-0.7-6.8,0.3-8.8,1.8
			c-2.1,1.5-4.8,5.5-5.5,6.6C113.3,26,89.6,60.9,77.8,80.9c0,0-36.8,11.3-59.3,20.6c-6.6,2.8-7.2,6.1-7.4,7.8
			c-0.1,1.3-0.1,4.7,5.2,9.1c6.5,5.5,27.1,22.4,27.1,22.4c-7.3,11.5-35.1,68.4-37.8,84.2c-0.8,4.6-0.7,9.3,2.6,13.6
			c2.1,2.7,5.8,4.6,9.7,4.7c4.7,0.1,11.2-5,14-6.9c22.2-15.9,65.5-49.1,65.5-49.1c16.3,14.7,50.8,46.3,69.1,63.2
			c2.1,2,8.9,8.2,15.4,8.3c12.5,0.4,16.5-10.3,17.1-14C200,236.3,195.7,226.7,194.5,223.4z M24.9,111.9c-0.5-0.4-2.2-1.7-2.1-3.3
			c0.1-0.8,0.5-1.6,1.5-2.2c0.4-0.3,1.7-0.8,2-0.9c3.9-1.4,21.1-7.6,44.5-13.3c-6.1,10.6-10.1,17.2-12.9,22.1
			c-6.5,11.4-6.5,11.9-9.2,16.6C48.7,130.8,29.6,115.7,24.9,111.9z M35.4,203.4c-0.6,0.4-2.9,1.9-3.5,2.2c-4.9,2.4-5.9-0.5-6.2-1.8
			c-0.6-2.4,1.5-6.7,1.7-7.2c4.7-10.1,23.4-49.7,23.4-49.7s23.2,19.8,28.9,24.8C79.7,171.9,46.2,196.1,35.4,203.4z M155.4,188.8
			c3.9,13.2,8.3,27.1,10.5,33.8c0.6,1.7,0.7,3.5,0.1,4.5c-0.6,1-1.7,1.3-3.3,0.6c-0.7-0.3-2.5-1.8-2.7-1.9
			c-8.4-7.4-52.3-45.9-52.3-45.9l37.8-26.8C145.5,153.2,150.4,171.9,155.4,188.8z M89.6,164.5c0,0-31.7-26.4-33.4-27.9
			c0,0,20.1-37.7,26.4-47.2c3.8-1.1,33.3-6.5,47.3-8.1c0,0,4.1,22.9,10.3,49.2C140.1,130.5,99.2,157.6,89.6,164.5z M177.9,76.8
			c13.6-0.7,28-0.8,29.1-0.8c3.4,0,6.3,0.4,6.8,1.9c0.7,2-0.8,4.2-3.3,6c-0.5,0.4-8.7,5.8-17.5,11.7c-13.4,9.1-30.2,20-30.2,20
			c0.1,0.3-6.4-29.3-7.7-37.2C155.1,78.5,166.4,77.4,177.9,76.8z M116,38.3c0.3-0.4,2.5-3.2,4.2-3.2c1.6,0,2.3,1.9,2.4,3.1
			c0.4,2.5,0.9,6.1,1.9,12c1.4,8.6,3.1,18.5,3.1,18.5c-9.1,1.8-30.8,6.9-38,8.9C97.2,65,111.4,44.2,116,38.3z"/>
	</g>
	<g>
		<path class="st1" d="M283.7,139.9c-2.5-4.7-3.8-10.6-3.8-17.6v-53h17.7v52c0,4.4,0.9,8.3,2.5,11.2c3,5.6,8.7,8.5,16.6,8.5
			c7.8,0,13.5-3,16.4-8.5c1.7-3,2.5-6.8,2.5-11.4V69.3h17.7v53c0,7-1.3,12.9-3.7,17.6c-5.6,10.9-17.2,15.9-33,15.9
			C300.7,155.8,289.2,150.7,283.7,139.9z"/>
		<path class="st1" d="M429,154.5l-35.7-46.7c-3.1-4.1-5.8-8-8.8-11.8h-0.3c0.4,3.1,0.4,8.4,0.4,12.5v45.9h-17.7V69.3h17.7
			l34.3,44.9c3.4,4.3,6.1,8,8.7,11.8h0.3c-0.3-4.5-0.3-10.2-0.3-14.2V69.3h17.7v85.2H429z"/>
		<path class="st1" d="M459.7,69.3h17.7v85.2h-17.7V69.3z"/>
		<path class="st1" d="M491.7,69.3H514c7.8,0,14.2,1,19.3,3.6c9.3,4.4,14.4,12.8,14.4,24.6c0,10-4.3,20.6-16.9,25.5
			c-4.8,1.8-10.7,3-18.2,3h-3v28.6h-17.7V69.3z M513.4,111.6c3.7,0,6.9-0.5,9.2-1.7c4.5-2.1,6.6-6.5,6.6-12.4
			c0-4.9-1.9-9.3-6.2-11.9c-2.5-1.4-5.6-1.9-9.8-1.9h-3.8v27.9H513.4z"/>
		<path class="st1" d="M558.6,69.3h49.3l-4.7,15h-26.9v19.7h27v14.9h-27v20.7h31.4v15h-49.1V69.3z M575.4,45.5h13.7l13.1,19h-13.6
			l-6.5-9.2l-6.2,9.2h-13.5L575.4,45.5z"/>
	</g>
	<g>
		<g>
			<path class="st1" d="M346.1,192h-41.5l-3.1,21.6c2.5-0.3,4.6-0.5,7.8-0.5c9.5,0,18.9,2.2,26.2,7c8.1,5.1,14.1,14.3,14.1,27.4
				c0,20.6-17.1,37.3-43.6,37.3c-12.4,0-22.9-3.1-28.5-6.3l4.1-15.4c4.6,2.5,13.9,5.6,23.7,5.6c11.9,0,23.4-6.8,23.4-19.7
				c0-12.3-9.1-20.4-30.7-20.4c-6,0-10.4,0.3-14.8,1l7.1-54.4h55.7V192z"/>
		</g>
		<path class="st1" d="M378.9,248.1c-0.9-5.2-1.3-11.4-1.3-18.5c0-24.9,5-38.2,18-38.2c13,0,18,13.3,18,38.2
			c0,7.1-0.4,13.3-1.3,18.5h20.3c1-5.6,1.6-11.7,1.6-18.5c0-35.6-14.7-54.6-38.5-54.6c-23.8,0-38.5,18.9-38.5,54.6
			c0,6.8,0.5,13,1.6,18.5H378.9z"/>
		<g>
			<path class="st1" d="M374.3,281.7c-2.1,1.9-4.8,3.4-8.5,3.4c-5.6,0-9.8-3.8-9.8-9.5c0-4,1.9-6.5,5-8.1c2.1-1.1,4.6-1.6,7.6-1.7
				l5.1-0.2v-0.9c0-3.4-2.3-5-5.7-5c-2.9,0-5.6,0.9-7.8,2.1l-2.4-4.8c3.5-1.9,7.3-2.9,11.5-2.9c8,0,11.9,3.6,11.9,10.8v12
				c0,3.4,0.1,6,0.6,7.6h-6.3L374.3,281.7z M369.6,270.9c-1.9,0.1-3.3,0.4-4.3,0.9c-1.3,0.7-1.8,1.9-1.8,3.4c0,2.6,1.7,4.1,4.4,4.1
				c2.8,0,4.8-1.4,5.8-2.2v-6.3L369.6,270.9z"/>
			<path class="st1" d="M384,254.9h6.4l0.8,3.3c3.1-2.4,6.5-4.1,10.2-4.1c4.7,0,9.5,2.3,9.5,10.8v19.6h-7.5v-17.3
				c0-3.6-0.8-6.6-4.6-6.6c-2.4,0-5.1,1.3-7.3,3.1v20.7H384V254.9z"/>
			<path class="st1" d="M415.4,269.6c0-8.9,6-15.5,14.8-15.5c8.8,0,14.9,6.6,14.9,15.5s-6,15.5-14.9,15.5
				C421.3,285.2,415.4,278.5,415.4,269.6z M437.3,269.6c0-5.5-2.4-9.5-7.1-9.5c-4.7,0-7.1,4-7.1,9.5c0,5.5,2.4,9.5,7.1,9.5
				C434.8,279.2,437.3,275.2,437.3,269.6z"/>
			<path class="st1" d="M446.6,276.9c2.3,1.4,5.1,2.4,8.1,2.4c3,0,5.2-0.9,5.2-3.1c0-5-13.9-3.1-13.9-13c0-5.3,4.3-9,11.2-9
				c3.3,0,6.3,0.6,8.7,1.4v6.3c-2.5-1.1-5.3-1.9-8.4-1.9c-2.5,0-4.2,0.8-4.2,2.7c0,4.7,13.9,2.9,13.9,13.2c0,6.5-5.6,9.2-12,9.2
				c-4.6,0-8.5-1.4-10.9-2.9L446.6,276.9z"/>
		</g>
	</g>
</g>
</svg>
